<svg width="40" height="40" viewBox="0 0 40 40" fill="none" xmlns="http://www.w3.org/2000/svg">
<path d="M7.76604 15.6671C7.7792 15.6684 7.80005 15.8301 7.81194 16.0265C7.86859 16.9636 8.20471 18.2182 8.65666 19.1778C8.67457 19.2158 8.69276 19.2536 8.71121 19.2912C8.82931 19.5318 9.07876 19.6759 9.34672 19.6759H16.2265C16.2268 19.6759 16.227 19.6761 16.227 19.6764C16.227 19.6766 16.2272 19.6769 16.2275 19.6769H16.479C16.5458 19.6769 16.61 19.7035 16.6572 19.7508L25.9387 29.0446C26.077 29.183 26.2647 29.2608 26.4604 29.2608H30.8845C31.1447 29.2608 31.3877 29.1249 31.5093 28.8949C31.9492 28.063 32.2707 27.1244 32.4447 26.1241C32.4835 25.9015 32.5243 25.5666 32.5356 25.38C32.5468 25.1935 32.5673 25.0401 32.5805 25.0401C32.5936 25.0407 32.6145 25.2026 32.6264 25.3995C32.683 26.3367 33.0191 27.5912 33.4711 28.5509C34.2184 30.1374 35.384 31.3571 36.7514 31.9825C37.1622 32.1704 37.7694 32.3445 38.1303 32.379C38.544 32.4186 38.5856 32.4632 38.2377 32.4923C37.5957 32.5461 36.7887 32.8318 36.1176 33.2442C35.074 33.8858 34.1968 34.9027 33.5802 36.1228C33.5778 36.1275 33.5765 36.1327 33.5764 36.1381L33.5759 36.1598C33.5757 36.1671 33.5698 36.173 33.5625 36.173C33.5574 36.173 33.5527 36.1758 33.5504 36.1804C33.0692 37.1509 32.7531 38.2481 32.6488 39.3868C32.581 40.1286 32.5694 40.1587 32.5424 39.6817C32.4835 38.6412 32.2157 37.5664 31.7874 36.5872C31.6753 36.3311 31.4175 36.1739 31.1379 36.1739H23.3871C23.1914 36.1739 23.0038 36.0961 22.8655 35.9577L13.7233 26.8043C13.585 26.6658 13.3973 26.588 13.2016 26.588H9.29469C9.02222 26.588 8.76964 26.7372 8.65394 26.9839C8.21949 27.9102 7.93146 28.943 7.83342 30.0138C7.76551 30.7558 7.75497 30.7852 7.72795 30.3077C7.65646 29.047 7.27944 27.7358 6.68064 26.6056C6.6749 26.5947 6.66366 26.588 6.6514 26.588C6.63322 26.588 6.61843 26.5734 6.61824 26.5552L6.6178 26.5109C6.61767 26.498 6.61437 26.4854 6.60816 26.4742C6.4283 26.1483 6.23119 25.8376 6.01604 25.5499C4.96086 24.1395 3.56061 23.2713 2.08733 23.1144L1.97112 23.1026C1.94045 23.0993 1.93961 23.0544 1.97014 23.0499C2.94775 22.9046 3.58292 22.6767 4.30901 22.211C5.22526 21.6232 6.00533 20.7551 6.59354 19.7059C6.59523 19.7029 6.59612 19.6995 6.59612 19.696V19.6851C6.59612 19.68 6.60024 19.6759 6.60534 19.6759C6.60869 19.6759 6.61177 19.6741 6.61339 19.6711C7.09476 18.8028 7.44573 17.8117 7.63029 16.7511C7.66904 16.5284 7.70983 16.1936 7.72112 16.0069C7.73238 15.8205 7.75286 15.6671 7.76604 15.6671ZM10.4973 0.0892742C10.5059 0.0281904 10.5316 0.0283275 10.5401 0.0894266C10.5492 0.15547 10.5584 0.25225 10.5649 0.359478C10.6216 1.29671 10.9576 2.55116 11.4096 3.51085C11.513 3.73034 11.7381 3.86338 11.9808 3.86338H23.4555C26.4667 3.86853 29.3542 5.06443 31.4838 7.19053C33.618 9.32122 34.8168 12.2115 34.8168 15.2247C34.8168 18.2379 33.8392 21.3758 31.4838 23.2589C30.112 24.3556 28.8413 25.0297 26.4766 25.2869C26.2547 25.311 26.0345 25.2277 25.8799 25.0667L21.9035 20.9248C21.4536 20.4561 21.7875 19.6773 22.4318 19.5943C23.2477 19.4892 24.1554 19.2506 24.9887 18.7091C25.8893 18.1237 27.2376 17.2885 27.2377 15.2247C27.2377 14.2183 26.8372 13.2528 26.1244 12.5411C25.4171 11.8349 24.4591 11.436 23.4594 11.4298C23.4573 11.4298 23.4555 11.4315 23.4555 11.4337C23.4555 11.4359 23.4537 11.4376 23.4516 11.4376H11.8278C11.5376 11.4376 11.2719 11.6068 11.167 11.8774C10.8664 12.6525 10.665 13.4874 10.5863 14.3468C10.5185 15.0886 10.5079 15.118 10.4809 14.6407C10.3858 12.9623 9.74991 11.1944 8.76897 9.88292C7.71381 8.47243 6.31357 7.60431 4.84026 7.44737L4.72404 7.43467C4.69377 7.4311 4.69287 7.38762 4.72307 7.38292C5.70056 7.23759 6.33595 7.00965 7.06194 6.54405C8.74381 5.4651 9.97224 3.44562 10.3832 1.08409C10.422 0.861495 10.4627 0.526749 10.474 0.339947C10.48 0.241067 10.4886 0.151575 10.4973 0.0892742Z" fill="url(#paint0_linear_65_33)"/>
<defs>
<linearGradient id="paint0_linear_65_33" x1="3.26416" y1="-0.714259" x2="26.7963" y2="39.7192" gradientUnits="userSpaceOnUse">
<stop stop-color="#15FF00"/>
<stop offset="1" stop-color="#00920F"/>
</linearGradient>
</defs>
</svg>
